# xmcd
#
# Track frame offsets:
#	150
#	17557
#	32937
#	48177
#	67904
#	81825
#	99012
#	117620
#	139569
#	164056
#	181378
#	206438
#	229008
#	243975
#	261580
#
# Disc length: 3726 seconds
#
# Revision: 2
# Processed by: cddbd v1.5.2PL0 Copyright (c) Steve Scherf et al.
# Submitted via: audiograbber 1.83.01
#
DISCID=c80e8c0f
DTITLE=Various Artist - CMA Awards 2000
DYEAR=2000
DGENRE=Country
TTITLE0=Lonestar - What About Now
TTITLE1=Tim McGraw - Something Like That
TTITLE2=Jo Dee Messina - That's The Way
TTITLE3=Vince Gill - Feels Like Love
TTITLE4=Alan Jackson - It Must Be Love
TTITLE5=Kenny Rogers - Buy Me A Rose
TTITLE6=Faith Hill - Breathe
TTITLE7=Lee Ann Womack - I Hope You Dance
TTITLE8=Brad Paisley - He Didn't Have To Be
TTITLE9=George Strait - The Best day
TTITLE10=Martina McBride - Love's The Only House
TTITLE11=Dixie Chicks - Goodbye Earl
TTITLE12=Toby Keith - How Do You Like Me Now
TTITLE13=SheDaisy - I Will ... But
TTITLE14=Asleep AT The Wheel ft. the Dixie Chicks - Roly Poly
EXTD=
EXTT0=
EXTT1=
EXTT2=
EXTT3=
EXTT4=
EXTT5=
EXTT6=
EXTT7=
EXTT8=
EXTT9=
EXTT10=
EXTT11=
EXTT12=
EXTT13=
EXTT14=
PLAYORDER=
